<svg viewBox="0 0 100 100" xmlns="http://www.w3.org/2000/svg"><path d="M89.2 84.3V30.4H44.346l-2.465-6.164-2.23-5.567c-.538-1.352-2.925-2.969-4.336-2.969H10.786c.025 0 .015 68.6.015 68.6zM50.98 20.6h38.264c5.39 0 9.756 4.376 9.756 9.76V84.34c0 5.39-4.4 9.76-9.756 9.76H10.756C5.366 94.1 1 89.725 1 84.34v-68.61c0-5.43 4.39-9.83 9.785-9.83h24.53c5.404 0 11.401 4.048 13.435 9.124z"/><rect fill-opacity=".01"/><path d="M37.75 34.32c-4.915 0-9.429 2.525-12.564 6.287-3.136 3.763-4.946 8.525-5.527 13.623a5.88 5.88 0 0 0 5.176 6.51 5.88 5.88 0 0 0 6.507-5.176c.354-3.103 1.524-5.802 2.88-7.428 1.353-1.624 2.545-2.056 3.528-2.056.984 0 2.178.434 3.532 2.058 1.354 1.625 2.523 4.325 2.877 7.428a5.88 5.88 0 0 0 6.507 5.176 5.88 5.88 0 0 0 5.176-6.508c-.58-5.098-2.39-9.862-5.527-13.625-3.136-3.763-7.649-6.289-12.564-6.289z"/><path d="M49.336 49.059a5.88 5.88 0 0 0-5.178 6.508c.58 5.1 2.392 9.862 5.528 13.625 3.135 3.762 7.648 6.289 12.564 6.289 4.915 0 9.428-2.527 12.564-6.29 3.135-3.761 4.945-8.524 5.527-13.62a5.88 5.88 0 0 0-5.174-6.51 5.88 5.88 0 0 0-6.51 5.176c-.354 3.102-1.523 5.802-2.877 7.426-1.354 1.625-2.548 2.058-3.53 2.058-.983 0-2.178-.434-3.532-2.058-1.354-1.625-2.524-4.326-2.877-7.428a5.88 5.88 0 0 0-6.506-5.176z"/></svg>