<svg viewBox="0 0 100 100" xmlns="http://www.w3.org/2000/svg"><rect/><path d="M89.244 20.963H50.98l-2.23-5.507c-2.033-5.014-8.03-9.012-13.436-9.012H10.785C5.391 6.444 1 10.79 1 16.152v67.763c0 5.32 4.366 9.64 9.756 9.64h78.488c5.356 0 9.756-4.316 9.756-9.64V30.603c0-5.318-4.366-9.64-9.756-9.64z" fill="#5e6c84"/><path d="M38.09 35.709c-4.688 0-8.998 2.407-12.006 6.016-3.007 3.608-4.752 8.19-5.312 13.1a5.444 5.444 0 0 0 4.79 6.027 5.444 5.444 0 0 0 6.028-4.791c.35-3.063 1.501-5.736 2.86-7.365 1.357-1.63 2.593-2.098 3.64-2.098 1.048 0 2.284.468 3.642 2.098 1.358 1.629 2.509 4.301 2.858 7.365a5.444 5.444 0 0 0 6.027 4.793 5.444 5.444 0 0 0 4.793-6.025c-.56-4.91-2.306-9.495-5.314-13.104-3.007-3.608-7.318-6.016-12.006-6.016z" color="#000" fill="#fff" style="-inkscape-stroke:none"/><path d="M49.385 50.035a5.444 5.444 0 0 0-4.795 6.025c.56 4.912 2.306 9.496 5.313 13.104 3.007 3.608 7.318 6.016 12.008 6.016 4.688 0 8.998-2.406 12.006-6.014 3.007-3.608 4.752-8.19 5.312-13.1a5.444 5.444 0 0 0-4.79-6.027 5.444 5.444 0 0 0-6.028 4.791c-.35 3.062-1.502 5.734-2.86 7.363-1.358 1.63-2.593 2.098-3.64 2.098-1.047 0-2.284-.47-3.643-2.1-1.357-1.629-2.508-4.301-2.857-7.363a5.444 5.444 0 0 0-6.026-4.793z" color="#000" fill="#fff" style="-inkscape-stroke:none"/></svg>